<svg width="22" height="20" viewBox="0 0 22 20" fill="none" xmlns="http://www.w3.org/2000/svg">
<path fill-rule="evenodd" clip-rule="evenodd" d="M16.7924 0H14.4515V2H7.42877V0H5.08779V2H2.74674H0.405762V4V6V8V18V20H2.74674H19.1335H21.4745H21.4745V18H21.4745V8H21.4745V6H21.4745V4H21.4745V2H21.4745H19.1335H16.7924V0ZM5.08779 4H7.42877H14.4515H16.7924H19.1335V6H2.74674V4H5.08779ZM2.74674 18V8H19.1335V18H2.74674ZM7.42877 10H5.08779V12H7.42877V10ZM9.76943 10H12.1104V12H9.76943V10ZM16.7924 10H14.4515V12H16.7924V10Z" fill="current"/>
</svg>
