<svg viewBox="0 0 44 36" fill="none" xmlns="http://www.w3.org/2000/svg">
<path d="M38.0205 4.51013V4.9409L38.4465 5.00463C39.8521 5.2149 41.1343 5.9174 42.061 6.98362C42.9877 8.04974 43.4979 9.40902 43.5 10.8149V29.6149C43.5 31.1743 42.8752 32.6707 41.7616 33.7748C40.6479 34.8789 39.1364 35.5 37.5595 35.5H6.44052C5.6598 35.5 4.88683 35.3475 4.16578 35.0514C3.44473 34.7553 2.78984 34.3215 2.23841 33.7748C1.68698 33.2281 1.2498 32.5793 0.951607 31.8656C0.653419 31.1519 0.5 30.3871 0.5 29.6149V10.8243C0.5 9.26489 1.12482 7.76845 2.23841 6.66443C3.35215 5.56027 4.86361 4.93919 6.44052 4.93919H13.0548H13.5548V4.43919V2.18919C13.5548 1.74259 13.7337 1.3134 14.0536 0.996275C14.3736 0.679007 14.8086 0.5 15.263 0.5H28.9108C29.3652 0.5 29.8002 0.679007 30.1202 0.996275C30.4401 1.3134 30.619 1.74259 30.619 2.18919V4.44932V4.94932H31.119H34.5232H35.0232V4.44932V3.2973H38.0205V4.51013ZM16.7769 27.9663C18.3233 28.9907 20.141 29.5372 22 29.5372C24.4928 29.5372 26.8843 28.5555 28.6483 26.8067C30.4124 25.0577 31.4043 22.6847 31.4043 20.2095C31.4043 18.3636 30.8522 16.5596 29.8183 15.0256C28.7844 13.4916 27.3154 12.2967 25.5975 11.5912C23.8796 10.8858 21.9895 10.7012 20.1661 11.0608C18.3427 11.4204 16.6672 12.3081 15.3517 13.6123C14.0362 14.9165 13.1398 16.5787 12.7766 18.3889C12.4134 20.1992 12.5998 22.0755 13.3122 23.7804C14.0245 25.4853 15.2305 26.9418 16.7769 27.9663Z" fill="url(#paint0_linear_488_549)" stroke="black"/>
<defs>
<linearGradient id="paint0_linear_488_549" x1="22" y1="0" x2="22" y2="36" gradientUnits="userSpaceOnUse">
<stop stop-color="white"/>
<stop offset="1" stop-color="#62E32D"/>
</linearGradient>
</defs>
</svg>
