<svg width="13" height="12" viewBox="0 0 13 12" fill="none" xmlns="http://www.w3.org/2000/svg">
<path d="M12.2046 1.16196L12.1929 1.16659C12.1929 1.16659 12.1929 1.16659 12.1929 1.16659L12.2046 1.16196ZM12.1663 1.23905C12.1673 1.25387 12.1667 1.26939 12.1644 1.285C12.1586 1.32308 12.1446 1.34489 12.1384 1.35195L12.1332 1.35798L12.1281 1.36417C10.8532 2.92581 9.63615 4.48479 8.42061 6.04183L8.41157 6.05341C7.20544 7.5984 6.00059 9.14157 4.73607 10.6919L1.19641 7.23089C1.19209 7.22667 1.17227 7.20088 1.16763 7.1499C1.166 7.13201 1.16669 7.11531 1.16884 7.1003L4.34946 10.2084L4.74176 10.5918L5.08726 10.1658C6.24903 8.73318 7.36849 7.30323 8.48683 5.87471C8.5413 5.80513 8.59577 5.73556 8.65024 5.66599C9.80419 4.1921 10.9594 2.71925 12.1663 1.23905ZM12.2197 1.15604L12.2294 1.15221L12.2197 1.15604Z" fill="white" stroke="black"/>
</svg>
