<svg width="21" height="20" viewBox="0 0 21 20" fill="none" xmlns="http://www.w3.org/2000/svg">
<path d="M5.29761 10H6.59815V11.1111H14.4014V10H15.7019V8.88889H17.0025V2.22222H15.7019V1.11111H14.4014V0H6.59815V1.11111H5.29761V2.22222H3.99707V8.88889H5.29761V10ZM6.59815 4.44444H7.8987V3.33333H9.19924V2.22222H11.8003V3.33333H13.1009V4.44444H14.4014V6.66667H13.1009V7.77778H11.8003V8.88889H9.19924V7.77778H7.8987V6.66667H6.59815V4.44444Z" fill="current"/>
<path d="M19.6038 14.4444V13.3333H18.3033V12.2222H2.69679V13.3333H1.39624V14.4444H0.0957031V20H2.69679V16.6667H3.99733V15.5556H5.29787V14.4444H15.7022V15.5556H17.0027V16.6667H18.3033V20H20.9044V14.4444H19.6038Z" fill="current"/>
</svg>
