<svg width="13" height="13" viewBox="0 0 13 13" fill="none" xmlns="http://www.w3.org/2000/svg">
<path d="M12.254 1.49087L11.5098 0.746569C11.1811 0.41781 10.6485 0.41781 10.3198 0.746569L2.39048 8.677C2.18662 8.88089 2.01874 9.11793 1.89388 9.37756L0.517659 12.2418C0.485211 12.3102 0.497907 12.3935 0.552224 12.4478C0.586789 12.4824 0.633344 12.5 0.680606 12.5C0.707411 12.5 0.732805 12.4944 0.7582 12.4817L3.62203 11.1052C3.88232 10.9804 4.11863 10.8125 4.32248 10.6086L12.2503 2.67958C12.5826 2.35223 12.5827 1.81892 12.254 1.49087ZM1.06717 11.935L1.82194 10.3617C1.98418 10.3942 2.24446 10.4845 2.43776 10.7265C2.56261 10.8838 2.61834 11.0517 2.64161 11.178L1.06717 11.935ZM4.0686 10.3568C3.89366 10.5317 3.69122 10.6764 3.46761 10.7829L2.97664 11.0193C2.93503 10.8584 2.85955 10.6764 2.71988 10.5028C2.49063 10.2157 2.20141 10.0894 1.98134 10.0316L2.21976 9.53699C2.32627 9.31335 2.47087 9.11087 2.64582 8.93592L8.94989 2.63094L10.3727 4.05393L4.0686 10.3568ZM10.6287 3.79499L9.20595 2.37201L9.78578 1.7921L11.2086 3.21508L10.6287 3.79499ZM11.9979 2.42634L11.4618 2.96252L10.039 1.53954L10.5751 1.00336C10.7628 0.815687 11.0661 0.815687 11.2544 1.00336L11.9986 1.74765C12.1855 1.93319 12.1855 2.23796 11.9979 2.42634Z" fill="black" stroke="black" stroke-width="0.2"/>
</svg>
